<?xml version="1.0" standalone="no"?>
<!DOCTYPE svg PUBLIC "-//W3C//DTD SVG 20010904//EN"
 "http://www.w3.org/TR/2001/REC-SVG-20010904/DTD/svg10.dtd">
<svg version="1.0" xmlns="http://www.w3.org/2000/svg"
 width="128.000000pt" height="128.000000pt" viewBox="0 0 128.000000 128.000000"
 preserveAspectRatio="xMidYMid meet">
<metadata>
Created by potrace 1.14, written by Peter Selinger 2001-2017
</metadata>
<g transform="translate(0.000000,128.000000) scale(0.100000,-0.100000)"
fill="#000000" stroke="none">
<path d="M170 1270 c-22 -14 -24 -1167 -2 -1189 7 -8 12 -25 9 -38 -6 -33 14
-45 75 -41 l53 3 5 41 5 40 327 0 327 0 3 -40 3 -41 53 -3 c63 -4 82 8 76 47
-3 18 0 30 9 34 11 4 13 107 13 591 -1 510 -3 588 -16 596 -20 13 -920 13
-940 0z"/>
</g>
</svg>
